<svg xmlns="http://www.w3.org/2000/svg" viewBox="0 0 388.33 147.33"><defs><style>.cls-1{fill:#fff;}</style></defs><title>apple_tv_plus_white</title><g id="Layer_2" data-name="Layer 2"><g id="Layer_1-2" data-name="Layer 1"><path class="cls-1" d="M81.35,23.64A33.25,33.25,0,0,0,88.93,0,32.49,32.49,0,0,0,67.3,11.3,31.22,31.22,0,0,0,59.54,34,27.05,27.05,0,0,0,81.35,23.64m7.07,11.9c-12.07-.7-22.24,6.9-28,6.9s-14.57-6.52-24.05-6.34A35.49,35.49,0,0,0,6.18,54.6C-6.76,77,2.73,110.4,15.31,128.65c6.12,8.67,13.45,19,23.19,18.67s12.76-6,23.88-6,14.4,6,24.05,5.82,16.38-8.69,22.41-18.1a80.32,80.32,0,0,0,10.09-20.86,32.88,32.88,0,0,1-19.57-29.9,33.62,33.62,0,0,1,15.78-28.07A34.4,34.4,0,0,0,88.42,35.53m77-17.38V42.76h19.65V59H165.4v58.23c0,8.69,3.88,13.12,12.5,13.12a64.5,64.5,0,0,0,7.07-.52v16.38a67.44,67.44,0,0,1-11.64.86c-20.34,0-28.19-7.91-28.19-27.72v-60H129.71V43.1h15V18.16Zm88.36,128H232.21L196,43.1h21.47l25.43,82.83h.52L268.84,43.1h21Zm94.65,0H329.79V103.95h-40V85.34h39.91V43.1h18.62V85.34h40v18.6H348.41Z"/></g></g></svg>