<svg xmlns="http://www.w3.org/2000/svg" viewBox="0 0 147.64 18.95"><defs><style>.cls-1{fill:#fff;}</style></defs><title>Asset 3</title><g id="Layer_2" data-name="Layer 2"><g id="Layer_1-2" data-name="Layer 1"><path d="M74.08,6.7h1.35V8.36h3V9.51H75.49c0,1.07,0,2.09,0,3.11a.68.68,0,0,0,.78.68.77.77,0,0,0,.74-.77,10.26,10.26,0,0,0,0-1.2c0-.26,0-.52,0-.82h1.4A23.05,23.05,0,0,1,78.33,13a2,2,0,0,1-2.17,1.73A1.91,1.91,0,0,1,74.11,13C74,10.94,74.08,8.83,74.08,6.7Z"/><path d="M72.11,6.21h1.52v8.34H72.11Z"/><path d="M11.2,6.59c-.87,3.56-1.71,6.85-2.46,10.15-.19.85-.54,1.07-1.37,1.06-2.41,0-2.4,0-3.06-2.31q-2-7-4-13.94C.25,1.13.15.71,0,.14c1.2,0,2.31-.06,3.4,0,.28,0,.65.49.74.81.75,2.77,1.44,5.56,2.15,8.35a4.42,4.42,0,0,0,.64,1.52L9.22.2h4L15.7,10.88l.22,0L18.63.2h3.73c-.06.32-.08.62-.16.91-1.46,5.23-2.94,10.45-4.37,15.68-.2.75-.5,1-1.29,1-2.58,0-2.59,0-3.21-2.5S12.16,10.42,11.58,8C11.49,7.59,11.37,7.22,11.2,6.59Z"/><path d="M60.73,0V6a5.17,5.17,0,0,1,4.39-1.6c2.42.23,3.87,1.58,3.95,4,.11,3.07,0,6.15,0,9.32H65.55c0-2.78,0-5.53,0-8.28,0-1.06-.31-2-1.55-2.23a2.46,2.46,0,0,0-2.82,1.3,5.44,5.44,0,0,0-.43,2.07c-.06,2.28,0,4.55,0,6.83a1.74,1.74,0,0,1-.08.32H57.27V0Z"/><path d="M21,9c0-2.43,1-3.93,3.18-4.29a17,17,0,0,1,5.19.05,3.45,3.45,0,0,1,2.78,3.09,11.14,11.14,0,0,1,.16,2c0,2.59,0,5.17,0,8-1.31-.35-2.74.72-3.68-.91A6.12,6.12,0,0,1,23.58,18a3.3,3.3,0,0,1-3.06-3.16,3.67,3.67,0,0,1,2.27-4.18,30.33,30.33,0,0,1,3.95-.92c.88-.19,2-.17,1.93-1.48,0-.8-1-1.36-2.28-1.19-.64.09-1.55.43-1.76.91-.43,1-1,1-1.87,1C22.19,9,21.64,9,21,9Zm7.68,2.64c-1.28.35-2.47.63-3.63,1a1.51,1.51,0,0,0-1,1.93c.19.86.91,1,1.67,1C27.78,15.56,29,14,28.68,11.63Z"/><path d="M40.62,9.21H44a39.58,39.58,0,0,1-.38,5.46c-.5,2.43-2.79,3.69-5.69,3.44-2.6-.22-4.47-1.79-4.56-4.23-.16-4.11-.09-8.22-.11-12.34a1.09,1.09,0,0,1,.13-.34h3.3V4.66h7.11V7.09h-7c0,2.2-.07,4.26,0,6.32a1.65,1.65,0,0,0,1.85,1.65,1.73,1.73,0,0,0,1.89-1.75C40.69,12,40.62,10.68,40.62,9.21Z"/><path d="M56.6,9.38c-1,0-1.84.05-2.71,0a1.22,1.22,0,0,1-.84-.58A2.46,2.46,0,0,0,50.42,7.3a2.2,2.2,0,0,0-2,1.76,6.59,6.59,0,0,0,.16,4.46,2.27,2.27,0,0,0,2.15,1.64A2.39,2.39,0,0,0,53,13.61a1.06,1.06,0,0,1,.69-.6c.94-.07,1.89,0,2.85,0a5.83,5.83,0,0,1-7,5.08,5.28,5.28,0,0,1-4.39-3.62,9.74,9.74,0,0,1,0-6.7c1-2.65,3.66-3.87,7.06-3.29A5,5,0,0,1,56.6,9.38Z"/><path class="cls-1" d="M28.68,11.63c.29,2.37-.91,3.93-2.93,4-.76,0-1.48-.16-1.67-1a1.51,1.51,0,0,1,1-1.93C26.21,12.26,27.41,12,28.68,11.63Z"/><path d="M89.66,7.25c-.88,3.58-1.72,6.87-2.47,10.18-.17.75-.47,1-1.2,1-2.52,0-2.52,0-3.22-2.4L78.47.81h4l2.73,10.68h.21L87.7.8h4l2.51,10.61.21,0c.14-.47.29-.93.41-1.4.72-2.82,1.45-5.65,2.12-8.48.15-.61.35-.89,1-.85,1,.05,1.91,0,3,0C100.62,1.91,100.35,3,100,4c-1.24,4.42-2.52,8.83-3.71,13.26-.24.89-.63,1.1-1.48,1.09-2.44,0-2.44,0-3-2.42S90.62,10.85,90,8.28C89.94,8,89.83,7.77,89.66,7.25Z"/><path d="M104.86,18.3h-3.45V.58h3.39V6.52c.4-.3.62-.48.85-.63A5.22,5.22,0,0,1,111,5.42c1.78.78,2.27,2.33,2.26,4.14,0,2.87,0,5.75,0,8.72h-3.56c0-2.6,0-5.15,0-7.7,0-2.08-.53-2.81-2.05-2.88a2.73,2.73,0,0,0-2.77,3C104.83,13.17,104.86,15.69,104.86,18.3Z"/><path d="M126.54,12.73h-9c.05,1.58.66,2.68,1.78,3a2.6,2.6,0,0,0,3.19-.93,1.14,1.14,0,0,1,.81-.33c.91,0,1.83,0,2.76,0a5.16,5.16,0,0,1-4.61,4.22c-4.36.66-7.36-1.82-7.49-6.23a12.5,12.5,0,0,1,.12-2.63c.58-3.08,2.78-4.83,6-4.88s5.2,1.44,5.94,4.58C126.31,10.51,126.37,11.54,126.54,12.73Zm-3.82-2.24c-.14-1.85-1.22-2.91-2.71-2.78a2.46,2.46,0,0,0-2.24,2.78Z"/><path d="M147.64,12.82h-9A2.79,2.79,0,0,0,140,15.73c.93.59,2.55.57,3.11-.26.69-1,1.57-.86,2.49-.87h1.67a5.38,5.38,0,0,1-5,4.31c-4.38.37-6.95-1.77-7.26-6.14a11.11,11.11,0,0,1,.17-3.2c.7-3.09,3-4.7,6.34-4.65,3.17,0,5.11,1.64,5.77,4.82C147.45,10.7,147.5,11.69,147.64,12.82Zm-9-2.31h5.17c-.17-1.78-1.15-2.79-2.61-2.78A2.69,2.69,0,0,0,138.66,10.51Z"/><path d="M131,18.55h-3.51V5.34h3.16l.23,1.11A4.38,4.38,0,0,1,135.12,5V8.33c-.08.05-.15.13-.21.13-3.07,0-3.88.8-3.88,3.9C131,14.39,131,16.41,131,18.55Z"/></g></g></svg>