<?xml version="1.0" encoding="utf-8"?>
<!-- Generator: Adobe Illustrator 21.0.0, SVG Export Plug-In . SVG Version: 6.00 Build 0)  -->
<svg version="1.1" id="Layer_1" xmlns="http://www.w3.org/2000/svg" xmlns:xlink="http://www.w3.org/1999/xlink" x="0px" y="0px"
	 viewBox="0 0 507.8 177.4" style="enable-background:new 0 0 507.8 177.4;" xml:space="preserve">
<style type="text/css">
	.st0{fill:#FFFFFF;}
</style>
<title>Disney White</title>
<g id="Layer_2">
	<g id="Layer_1-2">
		<path class="st0" d="M230.7,88.6c0.2,0,0.4,0,0.6,0.1c4.6,0.6,9.1,1.4,12.5,3c3,1.2,5.4,3.5,6.8,6.4c2.6,5.2,2.8,11.3,0.4,16.6
			c-2,3.8-5.2,6.8-9.1,8.7c-3.6,1.7-7.4,2.7-11.3,3.1c-7.3,0.7-14.7-0.6-21.4-3.8c-3.8-1.9-8.5-5.1-10.9-9.2c-1.8-3.1-1.6-7,0.4-9.9
			c3.4-4.6,10.6-5.6,16-5.4c5.3,0.3,10.5,1.3,15.5,2.8c1.1,0.4,5.1,2,5.8,2.7c0.5,0.5,0.8,1.2,0.6,1.9c-0.9,2.7-7.6,4.2-9.5,4.5
			c-5.2,0.8-7.8-1.2-13.7-3.5c-1.6-0.7-3.2-1.1-4.9-1.3c-2.7-0.3-5.9,0.5-6.4,3.4c-0.3,1.5,1.5,2.9,2.8,3.5c2.8,1.2,5.8,1.9,8.8,1.9
			c9.1,0.1,19.4-1.4,26.9-6.7c1.1-0.7,1.9-1.8,2-3.1c0-2.7-4.7-4.4-4.7-4.4c-5-2.1-14.4-3.1-19.1-3.5c-5-0.4-13-1.1-14.9-1.4
			c-2-0.2-3.9-0.7-5.8-1.4c-1.9-0.9-3.3-2.5-3.9-4.4c-0.9-3.4,0.2-7.6,2.1-10.4c5-7.2,16.7-9.9,25.5-11c8.5-1.1,22.2-1,30.5,3.4
			c1.3,0.7,1.9,1.3,1.7,2.7c-0.6,2.4-2.4,4.3-4.8,5c-2.5,0.8-7.6,1.1-9.8,1.2c-10,0.6-22.1,0.3-31.7,2.9c-0.9,0.2-1.7,0.5-2.5,1
			c-1.5,1.6,2.8,2.1,3.7,2.3c0.2,0.1,0.4,0.1,0.6,0.1L230.7,88.6 M171,43.9c0,0,1.6-2.4,3-4.3c3.1-4,6.6-7.7,10.4-11
			c1-0.9,2.3-1.9,2.3-1.9s-1.9,0.2-3,0.4c-2.6,0.5-6.3,3-8.2,4.6c-3.1,2.7-6.5,7-5,10.8C170.6,43,170.8,43.4,171,43.9 M188.3,48.5
			c4.8-0.3,9.6-1.7,13.8-4.1c4.2-2.3,10.4-6.9,9.7-12.3c-0.2-1.7-1.3-3.1-2.8-3.7c-1.9-0.8-2.8-0.7-5.2,0c-1.5,0.4-2.9,1-4.2,1.8
			c-5.8,3.7-11,8.3-15.4,13.6c-0.9,1.1-1.7,2.4-2.4,3.3c-0.4,0.5-0.8,1-0.7,1.2C181.3,48.7,186.4,48.7,188.3,48.5 M175.8,57.7
			c-0.6,0.9-1.1,1.8-1.6,2.8c-0.3,0.5-0.7,1-1.2,1.4c-1.3,0.9-2.4,1-3.6-0.1c-1.7-1.6-2.7-3.8-2.8-6.2c0.1-1,0-2-0.1-3
			c-0.3-1.4-1.7-2.9-2.5-4.3c-1-1.9-1.5-4-1.7-6.2c-0.3-5.7,2.7-10.9,6.5-15c4.1-4.3,9.1-7.7,14.6-10c5.2-2.2,12.9-3.7,18.7-1.7
			c2.2,0.8,4.2,2.1,5.8,3.9c0.2,0.3,0.5,0.6,0.8,0.9c0.5,0.2,1,0.3,1.5,0.3c2,0.5,3.9,1.4,5.6,2.6c2,1.6,3.4,3.8,3.9,6.3
			c1.1,5.2-1.9,11-5.3,14.5c-5.9,6-11.7,10.2-19.2,13.2c-3.3,1.3-8.4,2.5-12.2,2.2c-1.2-0.1-2.4-0.4-3.5-0.5
			c-0.6-0.1-2.7-0.6-2.9-0.7C176.4,57.9,176.1,57.8,175.8,57.7 M182.5,69.3c0.3,0,0.6,0.1,0.9,0.3c2.6,1,3.7,3.4,4.4,6.1
			c1.5,6.2,2.1,20,2.4,25.4c0.2,4,0.3,8,0.5,12c0.1,3.4,0.4,7.9-0.3,11c-0.3,1.3-1,2.4-2.1,3.1c-1.3,0.8-4.1,0.9-5.7,0.5
			c-3.9-0.8-5.1-3.3-5.7-7.1c-1.3-9.1-0.7-27,0.1-34.5c0.3-2.5,1.2-10.5,2.5-13.8C179.9,71.3,180.9,69,182.5,69.3 M65.2,84.5
			c0,0-5.7,0.4-9.7,0.8c-5,0.5-14.5,2.2-19.9,4.1c-1.6,0.6-5,2-5.2,3.7s0.8,3.1,2,4.5c0.7,0.8,4.6,4.6,5.7,5.5
			c6.4,5.1,13.4,9.4,20.9,12.7c2.4,1,6.3,2.4,6.3,2.4S65,107,65.1,96C65.1,90.2,65.2,84.5,65.2,84.5 M170.4,88.9
			c0.1,3.1-0.1,6.3-0.6,9.4c-0.4,2.1-1,4.2-1.8,6.2c-1.1,2.4-2.1,4.4-3.2,6.4c-2.5,4.1-5.5,7.8-9,11.1c-9.9,8.5-25.2,13.4-38.3,15
			c-9.5,1.1-19.2,0.9-28.6-0.8c-3.2-0.6-8.1-1.7-8.1-1.7s0,1.9-0.1,3.3c-0.2,1-0.4,1.9-0.8,2.8c-0.7,1.3-1.9,2.3-3.4,2.5
			c-2,0.5-4,0.4-5.9-0.3c-3-1.3-4.1-4.1-4.6-7.3c-0.4-2.6-0.9-7.1-0.9-7.1s-2.2-1.1-4.1-2c-5.6-2.8-11-6.1-16-9.8
			c-1.3-1-7-5.7-8.3-6.9c-3.6-3.2-6.6-6.8-9.1-10.9c-1.9-3.3-2.4-6.3-1-9.8c2-4.9,9-8.6,13.8-10.7c3.5-1.6,14.6-5.2,19.1-5.8
			c2.2-0.3,5.5-0.9,5.7-1l0.2-0.2c0.2-2.3,0.3-4.5,0.2-6.8c0-1.8,1.3-13.2,1.7-15.7c0.2-1.3,1.2-6.4,2.2-7.7
			c0.7-0.9,1.8-0.8,2.8-0.2c5.2,3.3,6.8,14.6,7.2,20.3c0.2,3.5,0.4,8.8,0.4,8.8s6-0.2,9.7-0.1c3.8,0.2,7.6,0.6,11.3,1.2
			c4.8,0.8,14.1,2.8,19.4,5.5c4.4,2.2,8.5,6,9.9,10c1.2,3.6,1.1,6.2-0.8,9.5c-2.1,3.7-6.1,6.5-10.2,6.7c-1.2,0.1-5.8-0.5-7.2-1.6
			c-0.5-0.5-0.5-1.2-0.1-1.7c0.1-0.2,2.3-1.3,3.5-2c0.6-0.3,1.2-0.7,1.6-1.2c1-0.9,2-1.9,1.9-3.1c-0.1-1.5-1.8-2.5-3.3-3.1
			c-7.3-2.9-21.9-5.3-28.9-5.7c-2.8-0.2-6.7-0.3-6.7-0.3l0.8,38.9c0,0,3.2,0.6,5.8,1c1.5,0.2,7.7,0.8,9.3,0.8
			c12.6,0.3,26.6-0.8,38.1-6.2c5.1-2.4,9.7-5.3,13.2-9.4c4.8-5.6,7.1-12.9,6.4-20.2c-0.7-8.3-6.5-18.1-11.2-24.1
			C130.1,49.1,109,36,90.4,28.4c-19-7.8-37.7-12.3-57.8-13c-5.2-0.2-16.5,0.1-22.2,1.7c-0.8,0.2-1.6,0.5-2.4,0.7
			c-0.7,0.1-1.3,0.4-1.8,0.8l-0.3,0.3c0.2,0.1,0.5,0.2,0.7,0.3c0.6,0.3,3.2,0.4,4.5,0.7c1.2,0.1,2.2,0.7,2.9,1.7
			c0.5,0.6,0.5,1.6,0,2.2c-1.3,1.6-6.2,1.3-8.3,1s-5-1-5.5-3c-0.6-2.3,0.5-4.5,1.7-6.6C4.3,11,7.6,8.9,12.6,7.5
			c7.4-2,14.9-3.1,22.5-3.5c15-0.6,29.2,2.1,43.8,6.5c9.3,2.9,18.4,6.4,27.2,10.6c6.8,3.4,13.4,7.1,19.8,11.2
			c1.6,1.1,11,7.9,12.4,9.1c3,2.5,7,6,9.9,8.9c5.6,5.5,12.5,13.9,15.8,20.7c0.8,1.6,1.4,3.2,2.5,5c0.9,1.8,1.6,3.6,2.1,5.5
			c0.3,1.1,0.6,2.7,0.7,2.8C169.8,84.4,170.5,87.6,170.4,88.9z M359.3,80.3c-7,1.6-25.5,2.5-25.5,2.5l-2.3,7.3
			c5.3-0.4,10.7-0.5,16-0.1c0,0,2.2-0.3,2.4,2.5c0,1.8,0,3.5-0.2,5.3c0,0-0.1,1.7-2.5,2.1s-19.9,1.1-19.9,1.1l-2.8,9.5
			c0,0-1,2.2,1.3,1.6s20.4-4,22.8-3.5s5.4,4,4.5,7.1c-1,3.8-19.2,15.4-30.2,14.6c0,0-5.8,0.4-10.7-7.5c-4.6-7.5,1.7-21.7,1.7-21.7
			s-2.9-6.6-0.8-8.9c0,0,1.2-1.1,4.9-1.4l4.5-9.2c0,0-5.1,0.3-8.1-3.4c-2.8-3.5-3-5.2-0.9-6.1c2.3-1.1,23.5-5,38-4.5
			c0,0,5.1-0.5,9.4,8.3C360.8,75.9,362.9,79.5,359.3,80.3L359.3,80.3z M304.6,115.8c-1.9,4.4-6.8,9.1-12.9,6.2S276,99.4,276,99.4
			s-3.7-7.3-4.4-7.2c0,0-0.8-1.4-1.3,6.6s0.1,23.6-3.1,26c-2.3,2.1-5.9,1.8-7.9-0.5c-0.2-0.3-0.5-0.6-0.7-0.9
			c-1.7-2.8-2.4-9.6-1.5-21.4c1.1-11.8,3.9-24.4,7.4-28.3s6.3-1.1,7.4,0c0,0,4.7,4.3,12.4,16.7l1.4,2.3c0,0,7,11.8,7.8,11.8
			c0,0,0.6,0.5,1.1,0.1c0.7-0.2,0.4-4,0.4-4s-1.5-12.9-7.9-34.6c-0.6-1.7-0.7-3.5-0.3-5.3c0.7-2.6,3.2-1.4,3.2-1.4s9.9,5,14.8,21.2
			S306.4,111.4,304.6,115.8L304.6,115.8z M411.5,106.1c-4.5,7.9-17.3,24.4-34.3,20.5c-6.6,15.3-10.9,31.4-13,47.9c0,0-0.6,4-3.9,2.6
			c-3.3-1.2-8.7-6.6-9.8-14.2c-1.2-10,3.3-26.8,12.3-46.1c-2.6-4.3-4.4-10.4-2.9-19.2c0,0,2.3-16.2,18.6-30.8c0,0,2-1.7,3.1-1.2
			s0.7,5.8-0.3,8.4S373,89.1,373,89.1s-4.5,8.5-3.3,15.2c8.5-13.1,28-39.6,40-31.3c4,2.9,5.9,9.2,5.9,16
			C415.6,95,414.2,100.8,411.5,106.1L411.5,106.1z M408,85.3c0,0-0.7-5.2-5.8,0.5c-7.3,7.9-13.6,16.8-18.7,26.3
			c6.7-0.8,13.1-4.4,15.1-6.2C401.8,103.1,409.2,95.4,408,85.3z M505.1,84.1H474c-0.6-10.6-1.9-21.1-3.9-31.5
			c-0.2-1.1-1.2-1.9-2.3-1.9h-7.2c-0.6,0-1.2,0.3-1.6,0.8c-0.4,0.5-0.6,1.2-0.4,1.8c2,10.2,3.3,20.5,4,30.9h-29.9
			c-1.4,0-2.5,1.1-2.5,2.5c0,0,0,0,0,0v6.5c0,1.4,1.1,2.5,2.5,2.5c0,0,0,0,0,0h30.4v4.4c0,8.6-0.4,17.2-1.3,25.7
			c-0.1,0.7,0.1,1.3,0.6,1.8c0.4,0.5,1,0.8,1.7,0.8h6.7c1.3,0,2.4-1,2.5-2.3c0.9-8.6,1.3-17.3,1.3-26v-4.4h30.7
			c1.4,0,2.5-1.1,2.5-2.5c0,0,0,0,0,0v-6.5C507.7,85.3,506.5,84.1,505.1,84.1L505.1,84.1z"/>
	</g>
</g>
</svg>
