<svg xmlns="http://www.w3.org/2000/svg" viewBox="0 0 507.77 275.4"><defs><style>.cls-1{fill:#fff;}</style></defs><title>Disney White</title><g id="Layer_2" data-name="Layer 2"><g id="Layer_1-2" data-name="Layer 1"><path class="cls-1" d="M230.67,186.6a1.27,1.27,0,0,1,.6.1c4.6.6,9.1,1.4,12.5,3a12.87,12.87,0,0,1,6.8,6.4,19.3,19.3,0,0,1,.4,16.6,20.12,20.12,0,0,1-9.1,8.7,33.28,33.28,0,0,1-11.3,3.1,40.31,40.31,0,0,1-21.4-3.8c-3.8-1.9-8.5-5.1-10.9-9.2a9.32,9.32,0,0,1,.4-9.9c3.4-4.6,10.6-5.6,16-5.4a68.21,68.21,0,0,1,15.5,2.8c1.1.4,5.1,2,5.8,2.7a2,2,0,0,1,.6,1.9c-.9,2.7-7.6,4.2-9.5,4.5-5.2.8-7.8-1.2-13.7-3.5a17.81,17.81,0,0,0-4.9-1.3c-2.7-.3-5.9.5-6.4,3.4-.3,1.5,1.5,2.9,2.8,3.5a21.49,21.49,0,0,0,8.8,1.9c9.1.1,19.4-1.4,26.9-6.7a4.11,4.11,0,0,0,2-3.1c0-2.7-4.7-4.4-4.7-4.4-5-2.1-14.4-3.1-19.1-3.5-5-.4-13-1.1-14.9-1.4a25.91,25.91,0,0,1-5.8-1.4,7.38,7.38,0,0,1-3.9-4.4c-.9-3.4.2-7.6,2.1-10.4,5-7.2,16.7-9.9,25.5-11,8.5-1.1,22.2-1,30.5,3.4,1.3.7,1.9,1.3,1.7,2.7a6.77,6.77,0,0,1-4.8,5c-2.5.8-7.6,1.1-9.8,1.2-10,.6-22.1.3-31.7,2.9a9.34,9.34,0,0,0-2.5,1c-1.5,1.6,2.8,2.1,3.7,2.3a1.27,1.27,0,0,0,.6.1l21.2,2.2M171,141.9s1.6-2.4,3-4.3a76.75,76.75,0,0,1,10.4-11c1-.9,2.3-1.9,2.3-1.9s-1.9.2-3,.4c-2.6.5-6.3,3-8.2,4.6-3.1,2.7-6.5,7-5,10.8a13.55,13.55,0,0,0,.5,1.4m17.3,4.6a33.48,33.48,0,0,0,13.8-4.1c4.2-2.3,10.4-6.9,9.7-12.3a4.54,4.54,0,0,0-2.8-3.7c-1.9-.8-2.8-.7-5.2,0a15.22,15.22,0,0,0-4.2,1.8,63.57,63.57,0,0,0-15.4,13.6c-.9,1.1-1.7,2.4-2.4,3.3-.4.5-.8,1-.7,1.2.2.4,5.3.4,7.2.2m-12.5,9.2a21.26,21.26,0,0,0-1.6,2.8,5.53,5.53,0,0,1-1.2,1.4c-1.3.9-2.4,1-3.6-.1a9,9,0,0,1-2.8-6.2,14.81,14.81,0,0,0-.1-3c-.3-1.4-1.7-2.9-2.5-4.3a16.87,16.87,0,0,1-1.7-6.2c-.3-5.7,2.7-10.9,6.5-15a43.13,43.13,0,0,1,14.6-10c5.2-2.2,12.9-3.7,18.7-1.7a13.28,13.28,0,0,1,5.8,3.9,7.27,7.27,0,0,0,.8.9,4.91,4.91,0,0,0,1.5.3,15.27,15.27,0,0,1,5.6,2.6,10.42,10.42,0,0,1,3.9,6.3c1.1,5.2-1.9,11-5.3,14.5-5.9,6-11.7,10.2-19.2,13.2-3.3,1.3-8.4,2.5-12.2,2.2-1.2-.1-2.4-.4-3.5-.5-.6-.1-2.7-.6-2.9-.7a1.79,1.79,0,0,0-.8-.4m6.7,11.6a1.9,1.9,0,0,1,.9.3c2.6,1,3.7,3.4,4.4,6.1,1.5,6.2,2.1,20,2.4,25.4.2,4,.3,8,.5,12,.1,3.4.4,7.9-.3,11a5.13,5.13,0,0,1-2.1,3.1c-1.3.8-4.1.9-5.7.5-3.9-.8-5.1-3.3-5.7-7.1-1.3-9.1-.7-27,.1-34.5.3-2.5,1.2-10.5,2.5-13.8.4-1,1.4-3.3,3-3M65.17,182.5s-5.7.4-9.7.8c-5,.5-14.5,2.2-19.9,4.1-1.6.6-5,2-5.2,3.7s.8,3.1,2,4.5c.7.8,4.6,4.6,5.7,5.5A97.49,97.49,0,0,0,59,213.8c2.4,1,6.3,2.4,6.3,2.4S65,205,65.07,194c0-5.8.1-11.5.1-11.5m105.2,4.4a44.45,44.45,0,0,1-.6,9.4,31.8,31.8,0,0,1-1.8,6.2c-1.1,2.4-2.1,4.4-3.2,6.4a55.26,55.26,0,0,1-9,11.1c-9.9,8.5-25.2,13.4-38.3,15a98.57,98.57,0,0,1-28.6-.8c-3.2-.6-8.1-1.7-8.1-1.7s0,1.9-.1,3.3a12.9,12.9,0,0,1-.8,2.8,4.68,4.68,0,0,1-3.4,2.5,9.85,9.85,0,0,1-5.9-.3c-3-1.3-4.1-4.1-4.6-7.3-.4-2.6-.9-7.1-.9-7.1s-2.2-1.1-4.1-2a110.15,110.15,0,0,1-16-9.8c-1.3-1-7-5.7-8.3-6.9a47.56,47.56,0,0,1-9.1-10.9c-1.9-3.3-2.4-6.3-1-9.8,2-4.9,9-8.6,13.8-10.7,3.5-1.6,14.6-5.2,19.1-5.8,2.2-.3,5.5-.9,5.7-1l.2-.2a59.63,59.63,0,0,0,.2-6.8c0-1.8,1.3-13.2,1.7-15.7.2-1.3,1.2-6.4,2.2-7.7.7-.9,1.8-.8,2.8-.2,5.2,3.3,6.8,14.6,7.2,20.3.2,3.5.4,8.8.4,8.8s6-.2,9.7-.1a111.23,111.23,0,0,1,11.3,1.2c4.8.8,14.1,2.8,19.4,5.5,4.4,2.2,8.5,6,9.9,10,1.2,3.6,1.1,6.2-.8,9.5-2.1,3.7-6.1,6.5-10.2,6.7-1.2.1-5.8-.5-7.2-1.6a1.24,1.24,0,0,1-.1-1.7c.1-.2,2.3-1.3,3.5-2a4.81,4.81,0,0,0,1.6-1.2c1-.9,2-1.9,1.9-3.1-.1-1.5-1.8-2.5-3.3-3.1-7.3-2.9-21.9-5.3-28.9-5.7-2.8-.2-6.7-.3-6.7-.3l.8,38.9s3.2.6,5.8,1c1.5.2,7.7.8,9.3.8,12.6.3,26.6-.8,38.1-6.2,5.1-2.4,9.7-5.3,13.2-9.4a27.11,27.11,0,0,0,6.4-20.2c-.7-8.3-6.5-18.1-11.2-24.1-12.3-15.8-33.4-28.9-52-36.5-19-7.8-37.7-12.3-57.8-13-5.2-.2-16.5.1-22.2,1.7-.8.2-1.6.5-2.4.7a4.28,4.28,0,0,0-1.8.8l-.3.3a6.66,6.66,0,0,0,.7.3c.6.3,3.2.4,4.5.7a4.1,4.1,0,0,1,2.9,1.7,1.8,1.8,0,0,1,0,2.2c-1.3,1.6-6.2,1.3-8.3,1s-5-1-5.5-3c-.6-2.3.5-4.5,1.7-6.6,2.4-4.2,5.7-6.3,10.7-7.7a107.05,107.05,0,0,1,22.5-3.5c15-.6,29.2,2.1,43.8,6.5a201.24,201.24,0,0,1,27.2,10.6,199.12,199.12,0,0,1,19.8,11.2c1.6,1.1,11,7.9,12.4,9.1,3,2.5,7,6,9.9,8.9,5.6,5.5,12.5,13.9,15.8,20.7.8,1.6,1.4,3.2,2.5,5a31.63,31.63,0,0,1,2.1,5.5c.3,1.1.6,2.7.7,2.8C169.77,182.4,170.47,185.6,170.37,186.9Zm188.9-8.6c-7,1.6-25.5,2.5-25.5,2.5l-2.3,7.3a103.44,103.44,0,0,1,16-.1s2.2-.3,2.4,2.5a42.32,42.32,0,0,1-.2,5.3s-.1,1.7-2.5,2.1-19.9,1.1-19.9,1.1l-2.8,9.5s-1,2.2,1.3,1.6,20.4-4,22.8-3.5,5.4,4,4.5,7.1c-1,3.8-19.2,15.4-30.2,14.6,0,0-5.8.4-10.7-7.5-4.6-7.5,1.7-21.7,1.7-21.7s-2.9-6.6-.8-8.9c0,0,1.2-1.1,4.9-1.4l4.5-9.2s-5.1.3-8.1-3.4c-2.8-3.5-3-5.2-.9-6.1,2.3-1.1,23.5-5,38-4.5,0,0,5.1-.5,9.4,8.3-.1,0,2,3.6-1.6,4.4Zm-54.7,35.5c-1.9,4.4-6.8,9.1-12.9,6.2S276,197.4,276,197.4s-3.7-7.3-4.4-7.2c0,0-.8-1.4-1.3,6.6s.1,23.6-3.1,26a5.63,5.63,0,0,1-8.6-1.4c-1.7-2.8-2.4-9.6-1.5-21.4,1.1-11.8,3.9-24.4,7.4-28.3s6.3-1.1,7.4,0c0,0,4.7,4.3,12.4,16.7l1.4,2.3s7,11.8,7.8,11.8c0,0,.6.5,1.1.1.7-.2.4-4,.4-4s-1.5-12.9-7.9-34.6a9.86,9.86,0,0,1-.3-5.3c.7-2.6,3.2-1.4,3.2-1.4s9.9,5,14.8,21.2,1.6,30.9-.2,35.3Zm106.9-9.7c-4.5,7.9-17.3,24.4-34.3,20.5a177.74,177.74,0,0,0-13,47.9s-.6,4-3.9,2.6c-3.3-1.2-8.7-6.6-9.8-14.2-1.2-10,3.3-26.8,12.3-46.1-2.6-4.3-4.4-10.4-2.9-19.2,0,0,2.3-16.2,18.6-30.8,0,0,2-1.7,3.1-1.2s.7,5.8-.3,8.4-8.3,15.1-8.3,15.1-4.5,8.5-3.3,15.2c8.5-13.1,28-39.6,40-31.3,4,2.9,5.9,9.2,5.9,16a36,36,0,0,1-4.1,17.1ZM408,183.3s-.7-5.2-5.8.5a127.47,127.47,0,0,0-18.7,26.3c6.7-.8,13.1-4.4,15.1-6.2,3.2-2.8,10.6-10.5,9.4-20.6Zm97.1-1.2H474a242,242,0,0,0-3.9-31.5,2.35,2.35,0,0,0-2.3-1.9h-7.2a2.09,2.09,0,0,0-1.6.8,1.92,1.92,0,0,0-.4,1.8,246.35,246.35,0,0,1,4,30.9h-29.9a2.48,2.48,0,0,0-2.5,2.5v6.5a2.48,2.48,0,0,0,2.5,2.5h30.4v4.4a237.67,237.67,0,0,1-1.3,25.7,2,2,0,0,0,.6,1.8,2.29,2.29,0,0,0,1.7.8h6.7a2.51,2.51,0,0,0,2.5-2.3,240.68,240.68,0,0,0,1.3-26v-4.4h30.7a2.48,2.48,0,0,0,2.5-2.5v-6.5A2.8,2.8,0,0,0,505.07,182.1Z"/><path class="cls-1" d="M465.77,133.5A214.27,214.27,0,0,0,89,95.5a2.82,2.82,0,0,0-.3,2.2,2.55,2.55,0,0,0,1.6,1.6l5.6,1.9a3.55,3.55,0,0,0,1,.2,3.14,3.14,0,0,0,2.6-1.4,203.1,203.1,0,0,1,167.9-89,203,203,0,0,1,186.9,124,2.94,2.94,0,0,0,2.7,1.8h6.7a2.28,2.28,0,0,0,1.9-1A2.4,2.4,0,0,0,465.77,133.5Z"/></g></g></svg>