<svg xmlns="http://www.w3.org/2000/svg" xmlns:xlink="http://www.w3.org/1999/xlink" width="68.119" height="61.601" viewBox="0 0 68.119 61.601">
  <defs>
    <filter id="Path_2133" x="0" y="0" width="68.119" height="61.601" filterUnits="userSpaceOnUse">
      <feOffset dy="2" input="SourceAlpha"/>
      <feGaussianBlur stdDeviation="1.5" result="blur"/>
      <feFlood flood-opacity="0.302"/>
      <feComposite operator="in" in2="blur"/>
      <feComposite in="SourceGraphic"/>
    </filter>
    <filter id="Path_2134" x="19.319" y="16.208" width="29.48" height="29.464" filterUnits="userSpaceOnUse">
      <feOffset dy="2" input="SourceAlpha"/>
      <feGaussianBlur stdDeviation="1.5" result="blur-2"/>
      <feFlood flood-opacity="0.302"/>
      <feComposite operator="in" in2="blur-2"/>
      <feComposite in="SourceGraphic"/>
    </filter>
  </defs>
  <g id="Eye_Logo" transform="translate(4.526 2.484)">
    <g transform="matrix(1, 0, 0, 1, -4.53, -2.48)" filter="url(#Path_2133)">
      <path id="Path_2133-2" data-name="Path 2133" d="M88.613,193.058A51.407,51.407,0,0,1,74.065,191c-7.5-2.409-11.979-7.533-13.876-15.091a39.058,39.058,0,0,1-.978-12.379,27.555,27.555,0,0,1,4.017-13.3,19.739,19.739,0,0,1,11.307-8.041,33.2,33.2,0,0,1,8.734-1.542c3.15-.09,6.315-.289,9.455-.129a33.685,33.685,0,0,1,14.506,3.554,18.913,18.913,0,0,1,9.176,11.188,35.681,35.681,0,0,1,1.688,13.963,30.3,30.3,0,0,1-3.324,12.633,18.509,18.509,0,0,1-8.752,8.052,30.359,30.359,0,0,1-10.224,2.607C93.4,192.734,91.008,192.883,88.613,193.058ZM113.9,166.705c-.15-.205-.209-.3-.285-.39a44.343,44.343,0,0,0-15.47-11.4,23.2,23.2,0,0,0-17.931-.428c-6.506,2.475-11.794,6.67-16.5,11.683a.661.661,0,0,0,.035,1.044A45.777,45.777,0,0,0,78.9,178.339a23.407,23.407,0,0,0,18.175.5,39.462,39.462,0,0,0,12.281-7.638c1.57-1.406,3.008-2.973,4.539-4.5Z" transform="translate(-54.58 -137.96)" fill="#d7463d"/>
    </g>
    <g transform="matrix(1, 0, 0, 1, -4.53, -2.48)" filter="url(#Path_2134)">
      <path id="Path_2134-2" data-name="Path 2134" d="M124.915,207.48a10.271,10.271,0,1,1,10.144-10.367A10.226,10.226,0,0,1,124.915,207.48Z" transform="translate(-90.76 -168.31)" fill="#d7463d"/>
    </g>
    <path id="Path_2135" data-name="Path 2135" d="M129.139,209.131l.188-3.589a.393.393,0,0,0-.376-.414h-.084l-3.572.627.484-1.33a.272.272,0,0,0-.084-.3l-3.916-3.164.881-.411a.272.272,0,0,0,.143-.327l-.773-2.4,2.252.477a.272.272,0,0,0,.3-.157l.435-1.044,1.758,1.887a.272.272,0,0,0,.463-.237l-.86-4.337,1.361.787a.272.272,0,0,0,.369-.1h0l1.392-2.712L130.9,195.1a.272.272,0,0,0,.348.122h0l1.4-.811-.849,4.376a.272.272,0,0,0,.463.237l1.744-1.9.435,1.044a.272.272,0,0,0,.3.157l2.256-.5-.773,2.378a.272.272,0,0,0,.143.327l.881.411-3.906,3.189a.272.272,0,0,0-.084.3l.484,1.33-3.582-.627a.393.393,0,0,0-.463.407l.188,3.589Z" transform="translate(-99.981 -174.295)" fill="#e8eaf2"/>
  </g>
</svg>
